<svg xmlns="http://www.w3.org/2000/svg" xmlns:xlink="http://www.w3.org/1999/xlink" width="50" zoomAndPan="magnify" viewBox="0 0 37.5 37.499999" height="50" preserveAspectRatio="xMidYMid meet" version="1.0"><defs><g/><clipPath id="a0d8ba99ba"><path d="M 0 0 L 37.007812 0 L 37.007812 37.007812 L 0 37.007812 Z M 0 0 " clip-rule="nonzero"/></clipPath><clipPath id="a6c48d39a7"><path d="M 18.75 0 C 29.105469 0 37.5 8.394531 37.5 18.75 C 37.5 29.105469 29.105469 37.5 18.75 37.5 C 8.394531 37.5 0 29.105469 0 18.75 C 0 8.394531 8.394531 0 18.75 0 " clip-rule="nonzero"/></clipPath></defs><g clip-path="url(#a0d8ba99ba)"><g clip-path="url(#a6c48d39a7)"><path fill="#000000" d="M 0 0 L 37.441406 0 L 37.441406 37.441406 L 0 37.441406 Z M 0 0 " fill-opacity="1" fill-rule="nonzero"/><path stroke-linecap="butt" transform="matrix(0.75, 0, 0, 0.75, 0.0000005, 0)" fill="none" stroke-linejoin="miter" d="M 25.000004 0 C 38.807298 0 50.000009 11.19271 50.000009 25.000005 C 50.000009 38.807299 38.807298 50.000009 25.000004 50.000009 C 11.19271 50.000009 -0.000000666667 38.807299 -0.000000666667 25.000005 C -0.000000666667 11.19271 11.19271 0 25.000004 0 " stroke="#000000" stroke-width="12" stroke-opacity="1" stroke-miterlimit="4"/></g></g><g fill="#ffffff" fill-opacity="1"><g transform="translate(1.661068, 25.898277)"><g><path d="M 5.878906 0.183594 C 7.542969 0.183594 8.921875 -0.261719 9.9375 -1.09375 C 10.820312 -1.820312 11.367188 -2.835938 11.367188 -4.136719 L 11.367188 -14.566406 L 7.570312 -14.566406 L 7.570312 -1.976562 C 7.570312 -0.753906 6.816406 -0.105469 5.851562 -0.105469 C 4.914062 -0.105469 4.160156 -0.753906 4.160156 -1.976562 C 4.160156 -3.5625 5.253906 -3.847656 5.253906 -3.847656 C 5.253906 -4.5 4.734375 -5.539062 3.667969 -5.539062 C 2.132812 -5.539062 1.300781 -4.421875 1.300781 -3.171875 C 1.300781 -1.300781 3.460938 0.183594 5.878906 0.183594 Z M 5.878906 0.183594 "/></g></g></g><g fill="#ff3131" fill-opacity="1"><g transform="translate(15.442316, 25.898277)"><g><path d="M 7.59375 0.285156 L 13.65625 -13.914062 L 13.65625 0 L 17.582031 0 L 17.582031 -14.566406 L 13.65625 -14.566406 L 9.804688 -5.382812 L 5.59375 -14.566406 L 1.300781 -14.566406 L 1.300781 0 L 1.5625 0 L 1.5625 -13.96875 Z M 7.59375 0.285156 "/></g></g></g></svg>